<?xml version="1.0" standalone="no"?><svg xmlns="http://www.w3.org/2000/svg" viewBox="0 0 1440 320"><path fill="#5000ca" fill-opacity="1" d="M0,288L8,250.7C16,213,32,139,48,112C64,85,80,107,96,101.3C112,96,128,64,144,74.7C160,85,176,139,192,144C208,149,224,107,240,128C256,149,272,235,288,272C304,309,320,299,336,261.3C352,224,368,160,384,149.3C400,139,416,181,432,181.3C448,181,464,139,480,122.7C496,107,512,117,528,128C544,139,560,149,576,160C592,171,608,181,624,176C640,171,656,149,672,149.3C688,149,704,171,720,165.3C736,160,752,128,768,144C784,160,800,224,816,245.3C832,267,848,245,864,218.7C880,192,896,160,912,122.7C928,85,944,43,960,69.3C976,96,992,192,1008,202.7C1024,213,1040,139,1056,138.7C1072,139,1088,213,1104,250.7C1120,288,1136,288,1152,272C1168,256,1184,224,1200,192C1216,160,1232,128,1248,101.3C1264,75,1280,53,1296,85.3C1312,117,1328,203,1344,250.7C1360,299,1376,309,1392,266.7C1408,224,1424,128,1432,80L1440,32L1440,0L1432,0C1424,0,1408,0,1392,0C1376,0,1360,0,1344,0C1328,0,1312,0,1296,0C1280,0,1264,0,1248,0C1232,0,1216,0,1200,0C1184,0,1168,0,1152,0C1136,0,1120,0,1104,0C1088,0,1072,0,1056,0C1040,0,1024,0,1008,0C992,0,976,0,960,0C944,0,928,0,912,0C896,0,880,0,864,0C848,0,832,0,816,0C800,0,784,0,768,0C752,0,736,0,720,0C704,0,688,0,672,0C656,0,640,0,624,0C608,0,592,0,576,0C560,0,544,0,528,0C512,0,496,0,480,0C464,0,448,0,432,0C416,0,400,0,384,0C368,0,352,0,336,0C320,0,304,0,288,0C272,0,256,0,240,0C224,0,208,0,192,0C176,0,160,0,144,0C128,0,112,0,96,0C80,0,64,0,48,0C32,0,16,0,8,0L0,0Z"></path></svg>